<?xml version="1.0" encoding="UTF-8" standalone="no"?>
<!DOCTYPE svg  PUBLIC '-//W3C//DTD SVG 1.1//EN'  'http://www.w3.org/Graphics/SVG/1.1/DTD/svg11.dtd'>
<svg xmlns="http://www.w3.org/2000/svg" baseProfile="full" height="81" width="156" version="1.1" xmlns:xlink="http://www.w3.org/1999/xlink" viewBox="0 0 156 81">
 <g transform="scale(1,-1) translate(0,-81)">
  <path fill="#ff4a31" d="m59.267 91.068q5.141-2.904 8.346-8.046v34.718h19.297v-98.283h-18.495v10.083q-4.073-6.477-9.281-9.415-5.209-2.938-12.954-2.938-12.753 0-21.466 10.316-8.714 10.316-8.714 26.474 0 18.629 8.58 29.313 8.58 10.683 22.936 10.683 6.61 0 11.751-2.905zm4.674-51.847q4.207 6.01 4.207 15.558 0 13.354-6.744 19.096-4.14 3.472-9.615 3.472-8.346 0-12.253-6.31-3.906-6.31-3.906-15.657 0-10.083 3.973-16.125 3.973-6.043 12.052-6.043t12.286 6.009zm85.729-0.4q4.48 5.942 4.48 16.892 0 10.951-4.48 16.86-4.47 5.909-12.82 5.909-8.34 0-12.85-5.909t-4.51-16.86q0-10.95 4.51-16.892 4.51-5.943 12.85-5.943 8.35 0 12.82 5.943zm15.23-10.517q-9.22-11.384-27.98-11.384t-27.98 11.384q-9.21 11.385-9.21 27.409 0 15.758 9.21 27.309 9.22 11.552 27.98 11.552t27.98-11.552q9.21-11.551 9.21-27.309 0-16.024-9.21-27.409zm41.29 46.038q-3.63-4.139-4.57-11.217h29.58q-0.47 7.545-4.57 11.451-4.11 3.906-10.19 3.906-6.61 0-10.25-4.14zm26.61 16.426q7.28-3.405 12.02-10.75 4.27-6.477 5.54-15.023 0.74-5.008 0.6-14.423h-49.81q0.4-10.95 6.88-15.357 3.94-2.738 9.48-2.738 5.88 0 9.55 3.339 2 1.803 3.54 5.008h19.43q-0.73-6.477-6.74-13.154-9.35-10.616-26.18-10.616-13.89 0-24.5 8.947-10.62 8.947-10.62 29.112 0 18.895 9.58 28.978 9.58 10.082 24.87 10.082 9.08 0 16.36-3.405zm45.81-48.075q0.6-5.074 2.6-7.211 3.54-3.806 13.09-3.806 5.61 0 8.91 1.669 3.31 1.67 3.31 5.008 0 3.205-2.67 4.874-2.67 1.67-19.83 5.743-12.36 3.071-17.43 7.678-5.08 4.541-5.08 13.087 0 10.083 7.92 17.327 7.91 7.245 22.26 7.245 13.63 0 22.21-5.442t9.84-18.796h-19.03q-0.4 3.672-2.07 5.809-3.13 3.873-10.68 3.873-6.21 0-8.85-1.937-2.63-1.936-2.63-4.54 0-3.272 2.8-4.741 2.81-1.535 19.83-5.275 11.35-2.67 17.03-8.079 5.61-5.475 5.61-13.688 0-10.816-8.05-17.66-8.04-6.844-24.87-6.844-17.16 0-25.34 7.244-8.18 7.245-8.18 18.462z" transform="scale(0.125) translate(0 506)"/>
  <path fill="#3cbf00" d="m68.995 91.658q5.508-2.337 9.047-7.144 3.005-4.073 3.672-8.38 0.668-4.307 0.668-14.055v-42.733h-19.43v44.269q0 5.875-2.003 9.481-2.604 5.074-9.882 5.074-7.545 0-11.451-5.041t-3.906-14.389v-39.394h-18.963v98.084h18.963v-34.786q4.139 6.343 9.581 8.847t11.451 2.504q6.744 0 12.253-2.337zm71.275-36.924q-1.8-1.135-3.64-1.836-1.83-0.701-5.04-1.302l-4.27-0.801q-6.01-1.069-8.62-2.604-4.4-2.604-4.4-8.08 0-4.874 2.7-7.044 2.71-2.17 6.58-2.17 6.14 0 11.32 3.606 5.17 3.605 5.37 13.153zm-11.55 8.881q5.28 0.667 7.55 1.669 4.07 1.736 4.07 5.408 0 4.474-3.11 6.176-3.1 1.703-9.11 1.703-6.74 0-9.55-3.338-2-2.471-2.67-6.677h-18.361q0.601 9.548 5.341 15.691 7.55 9.614 25.91 9.614 11.95 0 21.23-4.74 9.28-4.741 9.28-17.895v-33.385q0-3.472 0.13-8.413 0.21-3.739 1.14-5.074 0.93-1.336 2.8-2.204v-2.804h-20.69q-0.87 2.203-1.21 4.14-0.33 1.936-0.53 4.407-3.94-4.274-9.08-7.278-6.14-3.539-13.89-3.539-9.88 0-16.32 5.642-6.448 5.642-6.448 15.991 0 13.421 10.348 19.43 5.68 3.272 16.69 4.674zm92.34 28.51h20.44l-26.25-72.779h-20.09l-26.11 72.779h21.37l15.15-53.683zm49.65-17.894q-3.64-4.14-4.58-11.217h29.58q-0.46 7.545-4.57 11.451t-10.18 3.906q-6.61 0-10.25-4.14zm26.61 16.425q7.27-3.405 12.01-10.75 4.28-6.476 5.55-15.023 0.73-5.008 0.6-14.422h-49.81q0.4-10.95 6.87-15.357 3.94-2.738 9.48-2.738 5.88 0 9.55 3.339 2.01 1.802 3.54 5.007h19.43q-0.73-6.476-6.74-13.153-9.35-10.617-26.18-10.617-13.88 0-24.5 8.947-10.62 8.948-10.62 29.112 0 18.896 9.58 28.978 9.59 10.083 24.88 10.083 9.08 0 16.36-3.406z" transform="scale(0.125) translate(325 506)"/>
  <path fill="#0023b8" d="m54.536 118.04q1.469-0.1 4.006-0.3v-15.49q-1.602 0.2-5.375 0.3-3.772 0.1-5.208-1.67-1.435-1.766-1.435-3.903 0-2.136 0-6.142h12.486v-13.421h-12.486v-58.691h-18.963v58.691h-10.616v13.421h10.416v4.673q0 11.682 3.939 16.092 4.14 6.54 19.964 6.54 1.803 0 3.272-0.1zm55.854-24.835q0.37-0.033 1.64-0.1v-19.497q-1.81 0.2-3.21 0.267t-2.27 0.067q-11.484 0-15.424-7.479-2.203-4.206-2.203-12.953v-34.787h-19.163v72.779h18.161v-12.686q4.407 7.278 7.679 9.949 5.34 4.473 13.89 4.473 0.53 0 0.9-0.033zm58.26-55.119q4.47 5.943 4.47 16.893t-4.47 16.859q-4.48 5.91-12.82 5.91-8.35 0-12.86-5.91-4.5-5.909-4.5-16.859t4.5-16.893q4.51-5.942 12.86-5.942 8.34 0 12.82 5.942zm15.22-10.516q-9.21-11.384-27.98-11.384-18.76 0-27.97 11.384-9.22 11.384-9.22 27.409 0 15.758 9.22 27.309 9.21 11.551 27.97 11.551 18.77 0 27.98-11.551t9.21-27.309q0-16.025-9.21-27.409zm113.64 63.665q4.68-1.869 8.48-6.543 3.07-3.806 4.14-9.348 0.67-3.672 0.67-10.75l-0.13-45.871h-19.5v46.338q0 4.14-1.34 6.811-2.53 5.074-9.34 5.074-7.88 0-10.89-6.543-1.53-3.472-1.53-8.346v-43.334h-19.17v43.334q0 6.476-1.33 9.414-2.4 5.275-9.42 5.275-8.14 0-10.95-5.275-1.53-3.004-1.53-8.947v-43.801h-19.3v72.646h18.5v-10.617q3.54 5.676 6.67 8.079 5.55 4.274 14.36 4.274 8.35 0 13.49-3.673 4.14-3.405 6.27-8.746 3.74 6.409 9.28 9.414 5.88 3.005 13.09 3.005 4.81 0 9.48-1.87z" transform="scale(0.125) translate(642 506)"/>
  <path d="m154.7 180.06l83.17 116.57c18.9 25.84 27.73 37.18 37.81 47.26h-23.32c-5.67-12.6-11.97-22.68-29.61-47.26l-75.62-106.49-76.241 106.49c-12.602 17.02-22.054 32.14-30.246 47.26h-24.574c10.082-10.08 18.903-21.42 37.807-47.26l83.804-116.57-83.804-116.57c-18.904-25.837-27.725-37.179-37.807-47.261h23.314c6.301 11.972 13.863 24.574 30.246 47.259l75.611 106.49 76.25-106.49c19.53-27.097 22.05-31.508 29.61-47.261h24.58c-10.08 10.082-18.91 21.424-37.81 47.259z" transform="scale(0.125) translate(25 151)"/>
  <path d="m302.59 494.89c-3.16-11.97-7.57-25.2-16.39-47.26l-103.34-260.24-103.97 260.24c-10.079 24.58-13.86 35.92-17.01 47.26h-20.164c6.301-10.71 13.862-27.72 21.424-47.26l111.53-280.4-8.19-20.8c-37.81-94.513-58.6-117.2-105.23-117.2-14.493 0.003-28.356 3.783-40.958 11.345l-3.781-15.123c11.972-6.301 27.095-9.452 42.218-9.452 54.191 0 81.911 27.725 122.24 128.54l119.73 303.09c10.71 26.47 15.12 36.55 20.79 47.26z" transform="scale(0.125) translate(319)"/>
  <path d="m31.876 31.461l196.59 255.83c11.35 14.49 23.95 28.99 38.44 44.11v16.38c-15.75-1.89-31.51-1.89-44.74-1.89h-150.6c-15.75 0-36.544 0-47.256 1.89v-17.01c13.863 1.89 31.506 1.89 47.259 1.89h175.81c-8.83-10.71-15.13-18.91-23.32-29.62l-170.13-221.17c-11.973-15.752-23.315-28.985-37.807-44.108v-21.424c15.753 1.891 31.506 1.891 47.259 1.891h166.98c15.76 0 31.51 0 47.26-1.891v17.014c-15.75-1.891-31.5-1.891-47.26-1.891z" transform="scale(0.125) translate(659 149)"/>
  <path d="m28.509 390.95c7.857 14.51 19.34 27.8 33.24 39.28 23.57 18.13 53.791 30.22 89.441 30.22 70.71 0 111.21-36.86 111.21-98.51 0-41.09-15.72-68.29-62.86-107.57-53.18-43.52-70.1-71.32-70.1-116.04h13.29c0 41.7 12.69 64.67 64.07 106.37 49.55 41.09 69.5 73.12 69.5 117.24 0 69.5-45.93 111.2-125.11 111.2-39.28 0-71.914-13.29-97.298-33.24-15.108-11.48-27.196-25.38-37.47-40.49zm114.22-319.7h-13.29v-54.392h13.29z" transform="scale(0.125) translate(955 151)"/>
 </g>
</svg>
